<svg xmlns="http://www.w3.org/2000/svg" viewBox="0 0 512 512" fill="none">
  <rect x="20" y="20" width="472" height="472" rx="112" fill="#F4ECE3"/>
  <ellipse cx="255" cy="412" rx="144" ry="24" fill="#D9CEC2" opacity="0.52"/>

  <path d="M151 345C144 292 151 245 176 208C196 179 231 165 266 171C308 179 339 214 347 265C355 321 343 373 311 403C282 430 240 434 201 417C172 405 156 381 151 345Z" fill="#B97A52"/>
  <path d="M171 309C168 272 174 242 191 219C207 197 232 187 257 190C285 194 308 215 316 247C325 285 320 330 301 365C286 393 262 411 236 410C209 409 182 389 174 355C170 340 171 326 171 309Z" fill="#E9D6C3"/>
  <path d="M166 289C160 252 166 220 186 193C208 163 242 149 277 156C301 160 321 173 337 192C323 175 305 161 284 154C245 140 205 152 178 181C155 206 145 242 147 281C147 317 154 349 172 377C156 355 149 324 166 289Z" fill="#C88C63" opacity="0.55"/>

  <path d="M184 176C186 139 211 111 245 109C272 107 295 127 300 156C305 184 289 211 264 220C236 231 207 221 194 197C188 190 185 183 184 176Z" fill="#B97A52"/>
  <path d="M201 137L220 96L241 138L201 137Z" fill="#B97A52"/>
  <path d="M246 140L270 98L286 144L246 140Z" fill="#B97A52"/>
  <path d="M209 135L221 108L236 136L209 135Z" fill="#E5C0A4"/>
  <path d="M251 138L267 110L279 141L251 138Z" fill="#E5C0A4"/>

  <path d="M187 207C193 198 201 192 212 189" stroke="#6F4633" stroke-width="8" stroke-linecap="round"/>
  <path d="M252 191C262 193 270 199 275 208" stroke="#6F4633" stroke-width="8" stroke-linecap="round"/>
  <circle cx="223" cy="178" r="6" fill="#6F4633"/>
  <path d="M244 189L257 193L246 200" stroke="#6F4633" stroke-width="5" stroke-linecap="round" stroke-linejoin="round"/>
  <path d="M248 196C239 203 231 207 222 210" stroke="#6F4633" stroke-width="4" stroke-linecap="round"/>
  <path d="M246 198C253 206 257 211 259 217" stroke="#6F4633" stroke-width="4" stroke-linecap="round"/>

  <path d="M216 231C195 238 180 255 171 281" stroke="#8A583A" stroke-width="17" stroke-linecap="round"/>
  <path d="M226 270C204 278 191 298 186 320" stroke="#8A583A" stroke-width="16" stroke-linecap="round"/>
  <path d="M236 317C217 325 205 342 201 363" stroke="#8A583A" stroke-width="15" stroke-linecap="round"/>

  <path d="M162 360C137 347 121 324 119 294C117 264 131 235 157 213" stroke="#8A583A" stroke-width="22" stroke-linecap="round"/>
  <path d="M154 361C145 376 144 394 152 409C159 421 171 430 186 432" stroke="#8A583A" stroke-width="20" stroke-linecap="round"/>

  <ellipse cx="227" cy="427" rx="19" ry="10" fill="#E9D6C3"/>
  <ellipse cx="278" cy="427" rx="21" ry="10" fill="#E9D6C3"/>

  <path d="M349 346H403L396 406H356L349 346Z" fill="#8B8E96"/>
  <path d="M349 346H403L397 360H355L349 346Z" fill="#6D717A"/>
  <path d="M374 334L387 334L385 346L376 346L374 334Z" fill="#D59B39"/>
  <path d="M384 334C387 303 387 273 384 244" stroke="#5F6742" stroke-width="6" stroke-linecap="round"/>
  <path d="M382 304C372 280 361 261 346 245" stroke="#798154" stroke-width="6" stroke-linecap="round"/>
  <path d="M386 284C397 260 409 243 424 227" stroke="#5F6742" stroke-width="6" stroke-linecap="round"/>
  <path d="M390 305C400 287 412 274 427 264" stroke="#798154" stroke-width="5" stroke-linecap="round"/>
</svg>
